<svg xmlns="http://www.w3.org/2000/svg" xmlns:v="http://vecta.io" xmlns:xlink="http://www.w3.org/1999/xlink" viewBox="0 0 110 32" stroke="#000" stroke-linecap="round" stroke-linejoin="round" fill="#fff" fill-rule="evenodd" font-family="Roboto" font-size="14px" text-anchor="middle" width="300" height="300"><defs><style type="text/css"></style></defs><g><title>tensorflow-ar21</title><use xlink:href="#ewB13aP1h_barWEXX0KYr3.sym" x="0.5" y="0.5"></use></g><symbol id="ewB13aP1h_barWEXX0KYr3.sym" overflow="visible" v:tags="tensorflow, logo"><title>tensorflow-ar21</title><g id="juhnpg1k7qf" class="Group.cls" transform="translate(0 0)" v:abox="{&quot;x&quot;:0,&quot;y&quot;:0,&quot;width&quot;:108.6830139160156,&quot;height&quot;:30.07799530029295}" v:size="110,32,0.5,0.5"><g class="Prim.cls"><g id="juhnpg1a7q5" transform="translate(0 0)" class=""><path d="M 12.1820068359375 16.193000793457 L 16.2420043945313 13.8369979858398 L 20.2420043945313 16.193000793457 L 16.2420043945313 18.4990005493164 L 12.1820068359375 16.2430038452148 Z M 0 9.2249984741211 L 16.25 0 L 28.3300170898438 6.8680038452148 L 24.3300170898438 13.8359985351563 L 16.260009765625 9.2239990234375 L 4.0800018310547 16.1419982910156 Z" stroke="none" fill="#f6bd3a"></path></g><g id="juhnpg1b7q6" transform="translate(4.06201171875 4.61199951171875)" class=""><path d="M 8.1199951171875 20.8040008544922 L 8.1199951171875 16.1920013427734 L 12.1199951171875 13.8860015869141 L 16.1799926757813 11.5800018310547 L 16.1799926757813 16.1920013427734 L 12.1799926757813 18.4980010986328 L 12.1799926757813 23.1100006103516 L 8.1199951171875 25.4659957885742 Z M 8.1199951171875 11.5810012817383 L 4.0599975585938 9.2750015258789 L 0 11.5309982299805 L 0 6.9179992675781 L 12.1799926757813 0 L 12.1799926757813 9.2239990234375 Z M 20.1999816894531 6.9189987182617 L 20.1999816894531 4.6129989624023 L 24.2599792480469 2.2570037841797 L 24.3099975585938 6.8690032958984 L 20.25 9.2249984741211 Z" stroke="none" fill="#eb8c23"></path></g><g id="juhnpg1c7q7" transform="translate(0 4.612998962402344)" class=""><path d="M 8.1200103759766 23.0090026855469 L 8.1200103759766 9.2740020751953 L 12.1200103759766 7.0180053710938 L 12.1700134277344 11.5800018310547 L 16.2300109863281 13.8359985351563 L 16.2300109863281 18.4980010986328 L 12.1700134277344 16.3420028686523 L 12.1700134277344 25.4649963378906 Z M 2.0060119628906 10.3270034790039 L 0 9.1240005493164 L 0 4.6139984130859 L 4.0600128173828 6.9199981689453 L 4.0600128173828 11.5319976806641 L 2.0060119628906 10.3270034790039 Z M 16.2420043945313 4.6119995117188 L 16.2420043945313 0 L 24.2619934082031 4.6119995117188 L 24.31201171875 9.2239990234375 L 16.2420043945313 4.6119995117188 Z" stroke="none" fill="#e35a2b"></path></g><g id="juhnpg1d7q8" transform="translate(30.6920166015625 8.989997863769531)" class=""><path d="M 5.4830017089844 1.8280029296875 L 5.4830017089844 12.4280014038086 L 3.6199951171875 12.4280014038086 L 3.6199951171875 1.8280029296875 L 0 1.8280029296875 L 0 0 L 9.1000061035156 0 L 9.1000061035156 1.8270034790039 Z M 15.2679748535156 5.6780014038086 C 15.3819885253906 6.1389923095703 15.4327697753906 6.6133346557617 15.4189758300781 7.088005065918 L 9.4079895019531 8.870002746582 C 9.4549865722656 9.3200073242188 9.4419860839844 9.1370086669922 9.5829772949219 9.4570007324219 C 9.7239990234375 9.7770080566406 9.9029846191406 10.0390014648438 10.114990234375 10.2570037841797 C 10.3269958496094 10.4750061035156 10.5650024414063 10.6170043945313 10.8150024414063 10.7170028686523 C 11.0650024414063 10.8170013427734 11.3519897460938 10.8690032958984 11.6309814453125 10.8670043945313 C 12.0309753417969 10.8670043945313 12.3789978027344 10.802001953125 12.7039794921875 10.672004699707 C 13.0441284179688 10.5332336425781 13.3634948730469 10.34814453125 13.6529846191406 10.1220016479492 L 14.7349853515625 11.2920074462891 C 14.3348388671875 11.6782379150391 13.8652648925781 11.9853057861328 13.3509826660156 12.1970062255859 C 12.8409729003906 12.4100036621094 12.2330017089844 12.5169982910156 11.5239868164063 12.5169982910156 C 10.9901733398438 12.5191345214844 10.4617004394531 12.4105072021484 9.9719848632813 12.197998046875 C 9.4719848632813 11.9850006103516 9.052001953125 11.672004699707 8.6860046386719 11.2580032348633 C 8.3199768066406 10.8440017700195 8.0299987792969 10.3359985351563 7.8159790039063 9.7320022583008 C 7.6019897460938 9.1280059814453 7.4960021972656 8.4320068359375 7.4960021972656 7.6740036010742 C 7.4960021972656 6.8820037841797 7.5959777832031 6.1740036010742 7.7980041503906 5.5810012817383 C 8 4.9880065917969 8.2779846191406 4.4810028076172 8.6319885253906 4.0640029907227 C 8.9831848144531 3.6587295532227 9.4233093261719 3.3401031494141 9.9179992675781 3.1330032348633 C 10.4437561035156 2.9156646728516 11.0081176757813 2.8071517944336 11.5769958496094 2.8140029907227 C 12.2389831542969 2.8140029907227 12.8169860839844 2.9380035400391 13.3069763183594 3.1870040893555 C 13.7969970703125 3.4360046386719 14.2070007324219 3.7730026245117 14.5309753417969 4.1870040893555 C 14.8679504394531 4.6353302001953 15.1148376464844 5.1447296142578 15.2579956054688 5.6870040893555 Z M 13.52099609375 6.0980072021484 C 13.4969787597656 5.7779998779297 13.2769775390625 5.3980026245117 13.0950012207031 5.1450042724609 C 12.9234619140625 4.9190063476563 12.6935424804688 4.7440567016602 12.4299926757813 4.6390075683594 C 12.1579895019531 4.531005859375 11.7879943847656 4.4860076904297 11.4629821777344 4.4990005493164 C 10.8630065917969 4.5260009765625 10.1629943847656 4.7369995117188 9.8309936523438 5.1990051269531 C 9.4989929199219 5.661003112793 9.3939819335938 6.4620056152344 9.406982421875 7.3160018920898 Z M 22.0179748535156 12.3120040893555 L 22.0179748535156 7.0420074462891 C 22.0179748535156 6.0960006713867 21.8479919433594 5.4420013427734 21.5119934082031 5.0550003051758 C 21.1759948730469 4.6679992675781 20.7049865722656 4.4869995117188 20.1119995117188 4.4869995117188 C 19.4969787597656 4.4869995117188 19.0239868164063 4.6940002441406 18.6919860839844 5.1070022583008 C 18.3599853515625 5.5200042724609 18.1949768066406 6.1070022583008 18.1949768066406 6.8630065917969 L 18.1949768066406 12.3090057373047 L 16.3580017089844 12.3090057373047 L 16.3580017089844 2.9990005493164 L 18.1849975585938 2.9990005493164 L 18.1849975585938 3.8860015869141 C 18.4219970703125 3.5429992675781 18.75 3.286003112793 19.1699829101563 3.088005065918 C 19.5899963378906 2.8899993896484 20.0419921875 2.8040008544922 20.5269775390625 2.8040008544922 C 21.614990234375 2.8040008544922 22.4400024414063 3.1540069580078 23.0019836425781 3.8510055541992 C 23.5639953613281 4.5480041503906 23.8450012207031 5.5910034179688 23.8450012207031 6.9730072021484 L 23.8450012207031 12.3130035400391 L 22.0179748535156 12.3130035400391 Z M 31.3500061035156 9.8639984130859 C 31.3500061035156 10.3840026855469 31.2519836425781 10.8190002441406 31.0569763183594 11.1679992675781 C 30.8713073730469 11.507080078125 30.6064758300781 11.7962799072266 30.2850036621094 12.0110015869141 C 29.9649963378906 12.2239990234375 29.5849914550781 12.3780059814453 29.1849975585938 12.4710083007813 C 28.7509460449219 12.5671691894531 28.3075561523438 12.6147918701172 27.8630065917969 12.6130065917969 C 27.2229919433594 12.6130065917969 26.5889892578125 12.5010070800781 25.9559936523438 12.2760009765625 C 25.3650817871094 12.0728454589844 24.8063659667969 11.7859191894531 24.2969970703125 11.4240036010742 L 25.1210021972656 10.0500030517578 C 25.5366821289063 10.3464050292969 25.9939575195313 10.5796051025391 26.4779968261719 10.7420043945313 C 26.9449768066406 10.8960037231445 27.3979797363281 10.9720001220703 27.8349914550781 10.9720001220703 C 28.9700012207031 10.9720001220703 29.5379943847656 10.6289978027344 29.5379943847656 9.9420013427734 C 29.5379943847656 9.5870056152344 29.3459777832031 9.302001953125 28.9620056152344 9.0920028686523 C 28.5779724121094 8.8820037841797 28.0480041503906 8.6419982910156 27.3739929199219 8.3919982910156 C 26.9379272460938 8.23095703125 26.51416015625 8.0384521484375 26.1059875488281 7.8160018920898 C 25.7579956054688 7.620002746582 25.4729919433594 7.411003112793 25.2539978027344 7.1860046386719 C 25.0427551269531 6.9730834960938 24.8821411132813 6.7153930664063 24.7839965820313 6.4320068359375 C 24.6889953613281 6.1540069580078 24.6419982910156 5.8320007324219 24.6419982910156 5.4650039672852 C 24.6419982910156 5.0510025024414 24.718994140625 4.6850051879883 24.8719787597656 4.3650054931641 C 25.0225524902344 4.0496444702148 25.2477111816406 3.7757415771484 25.5279846191406 3.5670013427734 C 25.8119812011719 3.35400390625 26.1479797363281 3.1940002441406 26.5279846191406 3.0870056152344 C 26.9079895019531 2.9800033569336 27.343994140625 2.927001953125 27.8049926757813 2.927001953125 C 28.4049987792969 2.927001953125 28.9669799804688 3.0220031738281 29.5169982910156 3.2109985351563 C 30.0669860839844 3.4000015258789 30.5489807128906 3.6490020751953 30.9629821777344 3.9560012817383 L 30.177978515625 5.3500061035156 C 29.7999877929688 5.0780029296875 29.4150085449219 4.8769989013672 29.0249938964844 4.7470016479492 C 28.6349792480469 4.6170043945313 28.2250061035156 4.552001953125 27.7649841308594 4.552001953125 C 27.3049926757813 4.552001953125 26.989990234375 4.6320037841797 26.7890014648438 4.7920074462891 C 26.5959777832031 4.9357299804688 26.483642578125 5.1633605957031 26.4869995117188 5.4040069580078 C 26.4859313964844 5.5172576904297 26.5101623535156 5.6293258666992 26.5579833984375 5.7320022583008 C 26.60498046875 5.8320007324219 26.6940002441406 5.9360046386719 26.8240051269531 6.0320053100586 C 26.986572265625 6.1590270996094 27.1618347167969 6.2689437866211 27.3469848632813 6.3600006103516 C 27.6277465820313 6.4999313354492 27.9147033691406 6.6270599365234 28.2070007324219 6.7410049438477 L 29.572998046875 7.318000793457 C 29.9281921386719 7.4789428710938 30.2596130371094 7.6878967285156 30.5579833984375 7.9390029907227 C 30.8157043457031 8.1584777832031 31.0190124511719 8.4347076416016 31.1520080566406 8.7460021972656 C 31.281982421875 9.0530014038086 31.3469848632813 9.4260025024414 31.3469848632813 9.8639984130859 Z M 39.8479919433594 7.7170028686523 C 39.8479919433594 8.4869995117188 39.7419738769531 9.1750030517578 39.5279846191406 9.7840042114258 C 39.3139953613281 10.3930053710938 39.0279846191406 10.9080047607422 38.6409912109375 11.3270034790039 C 38.2728576660156 11.7395324707031 37.8188781738281 12.0665054321289 37.3110046386719 12.2850036621094 C 36.8110046386719 12.5050048828125 36.2469787597656 12.6130065917969 35.6429748535156 12.6130065917969 C 35.0429992675781 12.6130065917969 34.5079956054688 12.4980010986328 34.010986328125 12.2669982910156 C 33.5137634277344 12.0352020263672 33.0721130371094 11.6992950439453 32.7159729003906 11.2819976806641 C 32.3489990234375 10.8570022583008 32.06298828125 10.3480072021484 31.8559875488281 9.7560043334961 C 31.6489868164063 9.1640014648438 31.5559997558594 8.5019989013672 31.5559997558594 7.7690048217773 C 31.5559997558594 7.0120010375977 31.6619873046875 6.3320007324219 31.8760070800781 5.72900390625 C 32.0899963378906 5.1260070800781 32.3819885253906 4.6139984130859 32.7539978027344 4.1940002441406 C 33.1133728027344 3.7792739868164 33.5623474121094 3.4516830444336 34.0669860839844 3.2360076904297 C 34.5799865722656 3.0180053710938 35.1169738769531 2.9080047607422 35.7070007324219 2.9080047607422 C 36.2754821777344 2.9032516479492 36.8382873535156 3.0212707519531 37.3569946289063 3.2540054321289 C 37.8602294921875 3.4806823730469 38.3105163574219 3.81005859375 38.6789855957031 4.2210006713867 C 39.0519714355469 4.6350021362305 39.3409729003906 5.1410064697266 39.5489807128906 5.7380065917969 C 39.7569885253906 6.3350067138672 39.8489990234375 6.995002746582 39.8489990234375 7.7160034179688 Z M 38.0029907226563 7.7700042724609 C 38.0029907226563 6.8120040893555 37.802978515625 6.052001953125 37.3729858398438 5.4900054931641 C 36.9429931640625 4.9280014038086 36.3710021972656 4.6470031738281 35.6260070800781 4.6470031738281 C 34.9700317382813 4.6241760253906 34.3491821289063 4.9432983398438 33.9859924316406 5.4900054931641 C 33.5909729003906 6.0530014038086 33.3919982910156 6.7940063476563 33.3919982910156 7.7170028686523 C 33.3919982910156 8.7470016479492 33.60498046875 9.5290069580078 34.031982421875 10.0670013427734 C 34.4302368164063 10.5924987792969 35.0579223632813 10.8931121826172 35.7169799804688 10.8740081787109 C 36.0599975585938 10.8740081787109 36.3729858398438 10.7910003662109 36.656982421875 10.6260070800781 C 36.9434204101563 10.4579544067383 37.1911315917969 10.2313537597656 37.3840026855469 9.9609985351563 C 37.5946960449219 9.6625061035156 37.7507629394531 9.3290100097656 37.8450012207031 8.9759979248047 C 37.9509887695313 8.5980072021484 38.0049743652344 8.1959991455078 38.0049743652344 7.7700042724609 Z M 45.7380065917969 5.0380020141602 C 45.5405578613281 4.9331207275391 45.3323669433594 4.8499603271484 45.1169738769531 4.7900009155273 C 44.9039916992188 4.7300033569336 44.6439819335938 4.6900024414063 44.3370056152344 4.6900024414063 C 43.7569885253906 4.6900024414063 43.3069763183594 4.8899993896484 42.9889831542969 5.2929992675781 C 42.6709899902344 5.6959991455078 42.5090026855469 6.2929992675781 42.5090026855469 7.0850067138672 L 42.5090026855469 12.4069976806641 L 40.6819763183594 12.4069976806641 L 40.6819763183594 3.0930023193359 L 42.5090026855469 3.0930023193359 L 42.5090026855469 3.9800033569336 C 42.7379150390625 3.6581420898438 43.0384826660156 3.3938674926758 43.3869934082031 3.2080078125 C 43.7702331542969 2.998405456543 44.2012023925781 2.8916091918945 44.6380004882813 2.8980026245117 C 45.0159912109375 2.8980026245117 45.3379821777344 2.9309997558594 45.5679931640625 2.9960021972656 C 45.7986755371094 3.0564117431641 46.0174255371094 3.1554794311523 46.2149963378906 3.2890014648438 L 45.7349853515625 5.0290069580078 Z" stroke="none" fill="#ef6639"></path></g><g id="juhnpg1e7q9" transform="translate(77.635009765625 8.476005554199219)" class=""><path d="M 1.8630065917969 2.3419952392578 L 1.8630065917969 5.588996887207 L 5.4289855957031 5.588996887207 L 5.4289855957031 7.4159927368164 L 1.8630065917969 7.4159927368164 L 1.8630065917969 12.9329986572266 L 0 12.9329986572266 L 0 0.5139923095703 L 8 0.5139923095703 L 8 2.3409957885742 Z M 8.3030090332031 12.9319915771484 L 8.3030090332031 0.9579925537109 L 10.1300048828125 0 L 10.1300048828125 12.9339904785156 Z M 19.4629821777344 8.2319946289063 C 19.4629821777344 9.0019989013672 19.3559875488281 9.6899948120117 19.1430053710938 10.2989959716797 C 18.9299926757813 10.9079971313477 18.6329956054688 11.4229965209961 18.2560119628906 11.8419952392578 C 17.8875427246094 12.254638671875 17.4332580566406 12.5816268920898 16.9249877929688 12.7999954223633 C 16.4150085449219 13.0199966430664 15.8609924316406 13.1279907226563 15.2569885253906 13.1279907226563 C 14.6669921875 13.1279907226563 14.1219787597656 13.0130004882813 13.625 12.7819976806641 C 13.1279907226563 12.5509948730469 12.6969909667969 12.2220001220703 12.3299865722656 11.7969970703125 C 11.9629821777344 11.3719940185547 11.677001953125 10.8629913330078 11.4700012207031 10.27099609375 C 11.2630004882813 9.6790008544922 11.1700134277344 9.0169982910156 11.1700134277344 8.2839965820313 C 11.1700134277344 7.5269927978516 11.2760009765625 6.8470001220703 11.489990234375 6.2439956665039 C 11.7040100097656 5.6409912109375 11.9960021972656 5.1289978027344 12.3680114746094 4.7089996337891 C 12.739990234375 4.2889938354492 13.1679992675781 3.968994140625 13.6809997558594 3.7509918212891 C 14.1940002441406 3.5329971313477 14.7309875488281 3.4229965209961 15.3210144042969 3.4229965209961 C 15.9109802246094 3.4229965209961 16.4609985351563 3.5379943847656 16.9709777832031 3.7689971923828 C 17.4742431640625 3.9956817626953 17.9245300292969 4.3250579833984 18.2929992675781 4.7359924316406 C 18.6659851074219 5.1499938964844 18.9549865722656 5.6559906005859 19.1629943847656 6.2529907226563 C 19.3710021972656 6.8499908447266 19.4629821777344 7.5099945068359 19.4629821777344 8.2309951782227 Z M 17.6180114746094 8.2849960327148 C 17.6180114746094 7.3269958496094 17.4179992675781 6.5669937133789 16.9880065917969 6.004997253418 C 16.5580139160156 5.4429931640625 15.9859924316406 5.161994934082 15.2409973144531 5.161994934082 C 14.5429992675781 5.161994934082 13.9960021972656 5.4419937133789 13.6009826660156 6.004997253418 C 13.2059936523438 6.5679931640625 13.0069885253906 7.3089981079102 13.0069885253906 8.2319946289063 C 13.0069885253906 9.2619934082031 13.2200012207031 10.0439910888672 13.6470031738281 10.5820007324219 C 14.0452575683594 11.1074981689453 14.6729125976563 11.4081115722656 15.3320007324219 11.3889923095703 C 15.6619567871094 11.3925933837891 15.9867553710938 11.3069000244141 16.2720031738281 11.1409912109375 C 16.5584106445313 10.9729461669922 16.80615234375 10.746337890625 16.9989929199219 10.4759979248047 C 17.1990051269531 10.197998046875 17.35400390625 9.8699951171875 17.4590148925781 9.4909973144531 C 17.5639953613281 9.1119995117188 17.6189880371094 8.7109985351563 17.6189880371094 8.2849960327148 Z M 28.4750061035156 12.9329986572266 L 26.9150085449219 12.9329986572266 L 25.6549987792969 8.2329940795898 L 25.3800048828125 7.1429977416992 L 25.1759948730469 6.2469940185547 L 24.9720153808594 7.1519927978516 L 24.6969909667969 8.2519989013672 L 23.4549865722656 12.9359970092773 L 21.8949890136719 12.9359970092773 L 19.3399963378906 3.6219940185547 L 21.1399841308594 3.6219940185547 L 22.239990234375 8.14599609375 L 22.5060119628906 9.2639923095703 L 22.7009887695313 10.1869964599609 L 22.9309997558594 9.2639923095703 L 23.2149963378906 8.14599609375 L 24.4570007324219 3.6219940185547 L 25.9299926757813 3.6219940185547 L 27.1900024414063 8.1639938354492 L 27.4649963378906 9.2739944458008 L 27.6869812011719 10.1879959106445 L 27.8909912109375 9.2579956054688 L 28.1479797363281 8.1479949951172 L 29.2479858398438 3.6239929199219 L 31.0480041503906 3.6239929199219 Z" stroke="none" fill="#a6a7a9"></path></g></g></g></symbol></svg>